<svg id="6c0d96a6-afa9-47d0-91c5-2541054f3608" data-name="Ebene 1" xmlns="http://www.w3.org/2000/svg" xmlns:xlink="http://www.w3.org/1999/xlink" viewBox="0 0 620 402"><defs><style>.\38 0a541aa-d196-45f6-be08-335ca5360769{fill:url(#da1330d3-074b-4a91-b67d-b5519c2a4442);}.cf59b0ad-bf8a-4d0d-a485-a6298633eaec{fill:#313447;}.f1a203ee-466f-42b4-a0ed-b8f3f6d2c81b{fill:url(#698e0855-bd3e-44f1-81bb-d953aeca63bc);}.\31 5f0a186-0ca6-4f58-ab3b-ccc8e8b89e2a{fill:url(#f16d0800-0706-4502-91e9-96d563608886);}.aaf2fa28-4e30-4987-961d-7ee05df0e899{fill:url(#728d3ca0-3794-458e-ad36-843bb0d56968);}.a0972eb4-3b8a-45b3-bffa-5e069b07af70{fill:url(#a54a80d4-d249-47c5-98da-0b6f67bd2145);}.\30 e9ab0cf-7c87-4ea5-b33f-165c56424b40{fill:url(#11175770-cf34-441c-9624-c13c5f81fcc2);}.d4db2b11-8607-45a9-9e1c-ceae4a457fed{fill:#fdfdff;}.d56fdb8b-95c0-4eed-9753-06609ce2af5f{fill:#c2c2ff;}.cc814402-9ac0-4bd3-aab2-b91b7278bd9a{fill:#c40000;}.\33 2943899-23a1-4c60-87fd-417d0c161983{fill:#f9ff00;}.\38 ee14e60-e805-452d-8c95-7598c4046281{fill:#73738c;}.e3387a5e-a4e5-4c0a-9e1b-b5edb515c2ae{fill:#3f3f3f;}</style><radialGradient id="da1330d3-074b-4a91-b67d-b5519c2a4442" cx="249" cy="52.85" r="15.2" gradientTransform="translate(0 -26.42) scale(1 1.5)" gradientUnits="userSpaceOnUse"><stop offset="0" stop-color="#2065f1"/><stop offset="0.12" stop-color="#216cf1"/><stop offset="0.3" stop-color="#2381f1"/><stop offset="0.51" stop-color="#27a1f1"/><stop offset="0.59" stop-color="#2699f1"/><stop offset="0.73" stop-color="#2382f1"/><stop offset="0.86" stop-color="#2065f1"/></radialGradient><linearGradient id="698e0855-bd3e-44f1-81bb-d953aeca63bc" x1="202.67" y1="58" x2="221.01" y2="58" gradientUnits="userSpaceOnUse"><stop offset="0" stop-color="#2065f1"/><stop offset="0" stop-color="#2066f1"/><stop offset="0.01" stop-color="#237cf1"/><stop offset="0.02" stop-color="#258df1"/><stop offset="0.03" stop-color="#2698f1"/><stop offset="0.04" stop-color="#279ff1"/><stop offset="0.09" stop-color="#27a1f1"/></linearGradient><linearGradient id="f16d0800-0706-4502-91e9-96d563608886" x1="247" y1="19.05" x2="251" y2="19.05" xlink:href="#698e0855-bd3e-44f1-81bb-d953aeca63bc"/><linearGradient id="728d3ca0-3794-458e-ad36-843bb0d56968" x1="214.81" y1="30.63" x2="228.81" y2="30.63" xlink:href="#698e0855-bd3e-44f1-81bb-d953aeca63bc"/><linearGradient id="a54a80d4-d249-47c5-98da-0b6f67bd2145" x1="277.07" y1="59" x2="295.41" y2="59" xlink:href="#698e0855-bd3e-44f1-81bb-d953aeca63bc"/><linearGradient id="11175770-cf34-441c-9624-c13c5f81fcc2" x1="270.23" y1="32.56" x2="284.23" y2="32.56" xlink:href="#698e0855-bd3e-44f1-81bb-d953aeca63bc"/></defs><title>ambulance</title><path class="80a541aa-d196-45f6-be08-335ca5360769" d="M232,62.32V41.41a77.27,77.27,0,0,1,17.16-1.72,61.57,61.57,0,0,1,16.84,2V66H232Z" transform="translate(-10 -9.88)"/><rect class="cf59b0ad-bf8a-4d0d-a485-a6298633eaec" x="218.78" y="51.05" width="40.65" height="13.41" rx="6.7" ry="6.7"/><path class="f1a203ee-466f-42b4-a0ed-b8f3f6d2c81b" d="M219.24,60h-14.8a2,2,0,0,1,0-4h14.8a2,2,0,0,1,0,4Z" transform="translate(-10 -9.88)"/><path class="15f0a186-0ca6-4f58-ab3b-ccc8e8b89e2a" d="M251,11.65v14.8a2,2,0,0,1-4,0V11.65a2,2,0,0,1,4,0Z" transform="translate(-10 -9.88)"/><path class="aaf2fa28-4e30-4987-961d-7ee05df0e899" d="M225.79,37.12,215.33,26.65a1.77,1.77,0,0,1,2.5-2.5l10.46,10.46a1.77,1.77,0,0,1-2.5,2.5Z" transform="translate(-10 -9.88)"/><path class="a0972eb4-3b8a-45b3-bffa-5e069b07af70" d="M278.84,61h14.8a2,2,0,0,0,0-4h-14.8a2,2,0,0,0,0,4Z" transform="translate(-10 -9.88)"/><path class="0e9ab0cf-7c87-4ea5-b33f-165c56424b40" d="M273.25,39l10.46-10.46a1.77,1.77,0,1,0-2.5-2.5L270.75,36.54a1.77,1.77,0,1,0,2.5,2.5Z" transform="translate(-10 -9.88)"/><path class="d4db2b11-8607-45a9-9e1c-ceae4a457fed" d="M630,90.5A19.5,19.5,0,0,0,610.5,71H165C136,71,65,182,48,190s-38-7-38,46v72.5A19.5,19.5,0,0,0,29.5,328h581A19.5,19.5,0,0,0,630,308.5Z" transform="translate(-10 -9.88)"/><path class="d56fdb8b-95c0-4eed-9753-06609ce2af5f" d="M235,94.17v83.67a8.17,8.17,0,0,1-8.17,8.17H88a8.16,8.16,0,0,1-7-12.37c12.73-21.12,41.85-64,80.07-86.53a8.09,8.09,0,0,1,4.1-1.1h61.63A8.17,8.17,0,0,1,235,94.17Z" transform="translate(-10 -9.88)"/><path class="cc814402-9ac0-4bd3-aab2-b91b7278bd9a" d="M538.41,152H478.58a3.08,3.08,0,0,1-3.08-3.08V89.08A3.08,3.08,0,0,0,472.41,86H442.58a3.08,3.08,0,0,0-3.08,3.08v59.83a3.08,3.08,0,0,1-3.08,3.08H376.58a3.08,3.08,0,0,0-3.08,3.08v29.83a3.08,3.08,0,0,0,3.08,3.08h59.83a3.08,3.08,0,0,1,3.08,3.08v59.83a3.08,3.08,0,0,0,3.08,3.08h29.83a3.08,3.08,0,0,0,3.08-3.08V191.08a3.08,3.08,0,0,1,3.08-3.08h59.83a3.08,3.08,0,0,0,3.08-3.08V155.08A3.08,3.08,0,0,0,538.41,152Z" transform="translate(-10 -9.88)"/><rect class="cc814402-9ac0-4bd3-aab2-b91b7278bd9a" x="603" y="270.12" width="12" height="37" rx="6" ry="6"/><path class="32943899-23a1-4c60-87fd-417d0c161983" d="M32.67,222c0,9.94-6.29,18-14,18S10,231.94,10,222s.87-18,8.63-18S32.67,212.06,32.67,222Z" transform="translate(-10 -9.88)"/><path class="cc814402-9ac0-4bd3-aab2-b91b7278bd9a" d="M605.5,270.67H32.67a2.5,2.5,0,0,1,0-5H605.5a2.5,2.5,0,0,1,0,5Z" transform="translate(-10 -9.88)"/><path class="8ee14e60-e805-452d-8c95-7598c4046281" d="M124.64,396.88a50.94,50.94,0,1,1,50.94-50.94A51,51,0,0,1,124.64,396.88Z" transform="translate(-10 -9.88)"/><path class="e3387a5e-a4e5-4c0a-9e1b-b5edb515c2ae" d="M124.64,310a35.94,35.94,0,1,1-35.94,35.94A36,36,0,0,1,124.64,310m0-30a65.94,65.94,0,1,0,65.94,65.94A65.94,65.94,0,0,0,124.64,280Z" transform="translate(-10 -9.88)"/><path class="8ee14e60-e805-452d-8c95-7598c4046281" d="M513.52,396.88a50.94,50.94,0,1,1,50.94-50.94A51,51,0,0,1,513.52,396.88Z" transform="translate(-10 -9.88)"/><path class="e3387a5e-a4e5-4c0a-9e1b-b5edb515c2ae" d="M513.52,310a35.94,35.94,0,1,1-35.94,35.94A36,36,0,0,1,513.52,310m0-30a65.94,65.94,0,1,0,65.94,65.94A65.94,65.94,0,0,0,513.52,280Z" transform="translate(-10 -9.88)"/></svg>