<?xml version="1.0" encoding="utf-8"?>
<!-- Generator: Adobe Illustrator 21.1.0, SVG Export Plug-In . SVG Version: 6.00 Build 0)  -->
<svg version="1.1" id="Capa_1" xmlns="http://www.w3.org/2000/svg" xmlns:xlink="http://www.w3.org/1999/xlink" x="0px" y="0px"
	 viewBox="0 0 94.5 94.5" style="enable-background:new 0 0 94.5 94.5;" xml:space="preserve">
<style type="text/css">
	.st0{fill:#ff3b3f;}
</style>
<g>
	<path class="st0" d="M89.2,72.7c0.1-0.3,0.2-0.7,0.2-1.1V32.8c0-1.8-1.5-3.3-3.3-3.3H67.5v41.4c0,0.7-0.1,1.3-0.3,1.9H65
		c0.1-0.3,0.2-0.7,0.2-1.1V18.3c0-1.8-1.5-3.3-3.3-3.3H32.7c-1.8,0-3.3,1.5-3.3,3.3v53.4c0,0.4,0.1,0.7,0.2,1.1h-2.2
		c-0.2-0.6-0.3-1.2-0.3-1.9V29.4H8.9c-1.8,0-3.3,1.5-3.3,3.3v38.9c0,0.4,0.1,0.7,0.2,1.1H0v6.9h94.5v-6.9H89.2L89.2,72.7z
		 M15.6,59.1h-4.8v-4.8h4.8V59.1z M15.6,50.7h-4.8v-4.8h4.8V50.7z M15.6,42.6h-4.8v-4.8h4.8V42.6z M23,59.1h-4.8v-4.8H23V59.1z
		 M23,50.7h-4.8v-4.8H23V50.7z M23,42.6h-4.8v-4.8H23V42.6z M54.7,72.5h-14V55h14V72.5z M47.3,39.9c-6.5,0-11.8-5.3-11.8-11.8
		c0-6.5,5.3-11.8,11.8-11.8c6.5,0,11.8,5.3,11.8,11.8S53.7,39.9,47.3,39.9z M77.6,59.1h-4.8v-4.8h4.8V59.1z M77.6,50.7h-4.8v-4.8
		h4.8V50.7z M77.6,42.6h-4.8v-4.8h4.8V42.6z M85.1,59.1h-4.8v-4.8h4.8V59.1z M85.1,50.7h-4.8v-4.8h4.8V50.7z M85.1,42.6h-4.8v-4.8
		h4.8V42.6z M50.2,25.3h4.5v5.8h-4.5v4.5h-5.8v-4.5h-4.5v-5.8h4.5v-4.5h5.8V25.3z"/>
</g>
</svg>
