<svg id="a1926e29-679c-4638-8ad4-077156ebf6a7" data-name="Layer 1" xmlns="http://www.w3.org/2000/svg" viewBox="0 0 92.01 29.76"><title>logo</title><g id="65e7fe45-19b2-4dd2-8979-b189cb1f8954" data-name="1aed5ceb-b3de-443a-99b8-591c586fd359"><path id="a7fe15a3-f8f8-4ea1-9d91-ba1cdb1432fd" data-name="7d684443-8d48-44a2-9c0d-fb7b31e37f05" d="M718.39,531.71V516.9a1.94,1.94,0,0,1,.86-1.73,3.92,3.92,0,0,1,2.24-.58,4.12,4.12,0,0,1,2.29.57,1.93,1.93,0,0,1,.87,1.74v14.81a1.94,1.94,0,0,1-.87,1.74,4.09,4.09,0,0,1-2.29.58,3.92,3.92,0,0,1-2.23-.58,2,2,0,0,1-.87-1.74" transform="translate(-717.89 -504.78)" style="fill:#2fbbf4"/><path id="36c08c8b-6841-4dc2-96ae-c1eb550a071a" data-name="90ed658e-332d-499f-a705-9dc4010cc0bd" d="M718.39,531.71V516.9a1.94,1.94,0,0,1,.86-1.73,3.92,3.92,0,0,1,2.24-.58,4.12,4.12,0,0,1,2.29.57,1.93,1.93,0,0,1,.87,1.74v14.81a1.94,1.94,0,0,1-.87,1.74,4.09,4.09,0,0,1-2.29.58,3.92,3.92,0,0,1-2.23-.58A2,2,0,0,1,718.39,531.71Z" transform="translate(-717.89 -504.78)" style="fill:none;stroke:#092933;stroke-linejoin:round"/><path id="01842d17-91e7-48ed-959e-6ec5fb9dcb2b" data-name="7ace09a3-ebe6-439b-9b3c-9ad54cb46364" d="M719.7,517.3a6.87,6.87,0,0,1,.73-.73,7.3,7.3,0,0,1,.85-.68" transform="translate(-717.89 -504.78)" style="fill:none;stroke:#fff;stroke-linecap:round;stroke-linejoin:round;stroke-dasharray:1,2,6,2,3"/><path id="83d0f4c7-8ea2-4e57-beb2-db7b8e159e20" data-name="81d54abc-f086-4a73-b78b-b95928705b42" d="M721.5,533a3.17,3.17,0,0,1-1.81-.47A1.69,1.69,0,0,1,719,531v.69a1.69,1.69,0,0,0,.73,1.5,3.17,3.17,0,0,0,1.81.47,3.31,3.31,0,0,0,1.87-.46,1.69,1.69,0,0,0,.72-1.51V531a1.69,1.69,0,0,1-.72,1.51,3.31,3.31,0,0,1-1.87.46" transform="translate(-717.89 -504.78)" style="fill:#332e09;opacity:0.203766331076622;isolation:isolate"/></g><ellipse cx="3.64" cy="4.43" rx="3" ry="3.37" style="fill:#2fbbf4;stroke:#092933;stroke-miterlimit:10"/><path id="e4512692-9e1e-4d2d-95c0-3058305fb10e" data-name="6302ee17-3244-4276-9c41-3fff0c403308" d="M721.5,511.17a3.17,3.17,0,0,1-1.81-.47,1.69,1.69,0,0,1-.73-1.5v.69a1.68,1.68,0,0,0,.73,1.47,3.17,3.17,0,0,0,1.81.47,3.32,3.32,0,0,0,1.87-.47,1.69,1.69,0,0,0,.72-1.51v-.69a1.69,1.69,0,0,1-.72,1.51,3.31,3.31,0,0,1-1.87.46" transform="translate(-717.89 -504.78)" style="fill:#332e09;opacity:0.203766331076622;isolation:isolate"/><path id="2318f5fa-75e3-4676-98ad-fd790506b67a" data-name="3fe8aa04-f773-42d4-8c3d-fa0722b3b304" d="M720,508.07a6.87,6.87,0,0,1,.73-.73,7.3,7.3,0,0,1,.85-.68" transform="translate(-717.89 -504.78)" style="fill:none;stroke:#fff;stroke-linecap:round;stroke-linejoin:round;stroke-dasharray:1,2,6,2,3"/><g id="42df0bd9-8b46-4a71-85ba-9e0ff07acc88" data-name="Page-1"><g id="7c015f7f-a91e-40a9-96d7-8e6fa24bfa4a" data-name="letter-E-blue"><g id="ef157f92-cd39-4d51-9b72-5b2519f6b430" data-name="Page-1"><path id="5395ea5d-5ca1-43c4-86c8-1f60f9817b23" data-name="Fill-1" d="M750.44,510.41H737.67v6.88h11.77a2.8,2.8,0,0,1,1.94.58,2,2,0,0,1,.64,1.54,2.06,2.06,0,0,1-.63,1.56,2.74,2.74,0,0,1-1.95.6H737.67v8h13.22a2.9,2.9,0,0,1,2,.62,2.13,2.13,0,0,1,.68,1.65,2.08,2.08,0,0,1-.68,1.61,2.89,2.89,0,0,1-2,.62H735.47a3,3,0,0,1-3.48-3.48v-21a4.72,4.72,0,0,1,.36-2,2.25,2.25,0,0,1,1.14-1.13,4.77,4.77,0,0,1,2-.35h15a2.91,2.91,0,0,1,2,.6,2,2,0,0,1,.66,1.58,2.06,2.06,0,0,1-.66,1.59,2.91,2.91,0,0,1-2,.6" transform="translate(-717.89 -504.78)" style="fill:#2fbbf4"/><path id="65afa4ef-5b5b-410b-8dba-ac71af8e9275" data-name="Stroke-3" d="M750.44,510.41H737.67v6.88h11.77a2.8,2.8,0,0,1,1.94.58,2,2,0,0,1,.64,1.54,2.06,2.06,0,0,1-.63,1.56,2.74,2.74,0,0,1-1.95.6H737.67v8h13.22a2.9,2.9,0,0,1,2,.62,2.13,2.13,0,0,1,.68,1.65,2.08,2.08,0,0,1-.68,1.61,2.89,2.89,0,0,1-2,.62H735.47a3,3,0,0,1-3.48-3.48v-21a4.72,4.72,0,0,1,.36-2,2.25,2.25,0,0,1,1.14-1.13,4.77,4.77,0,0,1,2-.35h15a2.91,2.91,0,0,1,2,.6,2,2,0,0,1,.66,1.58,2.06,2.06,0,0,1-.66,1.59,2.91,2.91,0,0,1-2,.6Z" transform="translate(-717.89 -504.78)" style="fill:none;stroke:#092933;stroke-linejoin:round"/><path id="e6917dfa-4889-4c9b-9d09-eb22856d467d" data-name="Fill-5" d="M752.56,532a2.44,2.44,0,0,1-1.68.49H735.47a3.2,3.2,0,0,1-2.31-.67,2.44,2.44,0,0,1-.58-1.31h-.09a3.23,3.23,0,0,0,.67,2.3,3.2,3.2,0,0,0,2.31.67h15.41a2.44,2.44,0,0,0,1.68-.49,1.59,1.59,0,0,0,.51-1.24,2,2,0,0,0-.07-.51,1.51,1.51,0,0,1-.45.75" transform="translate(-717.89 -504.78)" style="fill:#332e09;opacity:0.203766331076622;isolation:isolate"/><path id="087280e3-cc0b-4cc7-abb7-6a773c040ea9" data-name="Stroke-7" d="M737.6,507.53h10.63" transform="translate(-717.89 -504.78)" style="fill:none;stroke:#fff;stroke-linecap:round;stroke-linejoin:round;stroke-dasharray:1,2,6,2,3"/></g></g></g><g id="ba6424ed-45c9-44e2-aa34-d358c094a1f2" data-name="Page-1"><g id="f1134144-57ae-4987-b369-674d205be1e0" data-name="letter-R"><g id="70b3809a-e277-4184-989a-bcdba0205b8e" data-name="Page-1"><path id="fe506951-d775-43f5-972e-39bd10a69a92" data-name="Fill-1" d="M770.25,509.47h-5.15V517h5a14,14,0,0,0,3.38-.35,4,4,0,0,0,2.09-1.18,3.4,3.4,0,0,0,.72-2.3,3.48,3.48,0,0,0-2.2-3.32,11.64,11.64,0,0,0-3.85-.41M767.06,521h-2v8.84a3.68,3.68,0,0,1-.77,2.57,2.62,2.62,0,0,1-2,.83,2.56,2.56,0,0,1-2.07-.86,3.83,3.83,0,0,1-.73-2.53V508.7a2.93,2.93,0,0,1,3.42-3.42H772a27.43,27.43,0,0,1,3.21.16,8,8,0,0,1,2.4.65,7,7,0,0,1,2.29,1.56,6.82,6.82,0,0,1,1.51,2.36,7.86,7.86,0,0,1,.52,2.84,6.87,6.87,0,0,1-1.74,4.92,10,10,0,0,1-5.27,2.61,10.22,10.22,0,0,1,2.84,2.33A23.73,23.73,0,0,1,780.2,526a24.25,24.25,0,0,1,1.65,3.14,6.18,6.18,0,0,1,.59,1.92,2,2,0,0,1-.35,1.08,2.42,2.42,0,0,1-.95.84,3,3,0,0,1-1.39.31,2.71,2.71,0,0,1-1.58-.44,4.25,4.25,0,0,1-1.1-1.12q-.46-.68-1.25-2L773.6,526a20.46,20.46,0,0,0-2.15-3.12,5.31,5.31,0,0,0-1.92-1.47,6.64,6.64,0,0,0-2.46-.39" transform="translate(-717.89 -504.78)" style="fill:#2fbbf4"/><path id="92889071-87bc-4815-b79b-abfff340ac95" data-name="Stroke-3" d="M770.25,509.47h-5.15V517h5a14,14,0,0,0,3.38-.35,4,4,0,0,0,2.09-1.18,3.4,3.4,0,0,0,.72-2.3,3.48,3.48,0,0,0-2.2-3.32,11.64,11.64,0,0,0-3.85-.41ZM767.06,521h-2v8.84a3.68,3.68,0,0,1-.77,2.57,2.62,2.62,0,0,1-2,.83,2.56,2.56,0,0,1-2.07-.86,3.83,3.83,0,0,1-.73-2.53V508.7a2.93,2.93,0,0,1,3.42-3.42H772a27.43,27.43,0,0,1,3.21.16,8,8,0,0,1,2.4.65,7,7,0,0,1,2.29,1.56,6.82,6.82,0,0,1,1.51,2.36,7.86,7.86,0,0,1,.52,2.84,6.87,6.87,0,0,1-1.74,4.92,10,10,0,0,1-5.27,2.61,10.22,10.22,0,0,1,2.84,2.33A23.73,23.73,0,0,1,780.2,526a24.25,24.25,0,0,1,1.65,3.14,6.18,6.18,0,0,1,.59,1.92,2,2,0,0,1-.35,1.08,2.42,2.42,0,0,1-.95.84,3,3,0,0,1-1.39.31,2.71,2.71,0,0,1-1.58-.44,4.25,4.25,0,0,1-1.1-1.12q-.46-.68-1.25-2L773.6,526a20.46,20.46,0,0,0-2.15-3.12,5.31,5.31,0,0,0-1.92-1.47,6.64,6.64,0,0,0-2.46-.39Z" transform="translate(-717.89 -504.78)" style="fill:none;stroke:#092933;stroke-linejoin:round"/><path id="13ac5021-97e1-4e8c-8a8d-28284b81c3cf" data-name="Fill-5" d="M781.84,530.52a1.81,1.81,0,0,1-.16.33,1.94,1.94,0,0,1-.76.67,2.51,2.51,0,0,1-1.16.25,2.2,2.2,0,0,1-1.29-.35,3.75,3.75,0,0,1-1-1c-.3-.43-.71-1.1-1.23-2L774,524.75a12.94,12.94,0,0,0-1.88-2.55,6.24,6.24,0,0,0-2.43-1.24,4.65,4.65,0,0,1,1,.56,7.16,7.16,0,0,1,1.12,1,21,21,0,0,1,2.2,3.19l2.23,3.72c.52.87.94,1.53,1.23,2a3.75,3.75,0,0,0,1,1,2.2,2.2,0,0,0,1.29.35,2.51,2.51,0,0,0,1.16-.25,1.94,1.94,0,0,0,.76-.67,1.47,1.47,0,0,0,.27-.81,2.06,2.06,0,0,0-.1-.52m-19.51,1.26a2.07,2.07,0,0,1-1.68-.69,3.37,3.37,0,0,1-.61-2.21v1a3.37,3.37,0,0,0,.61,2.21,2.07,2.07,0,0,0,1.68.69,2.12,2.12,0,0,0,1.64-.67,3.23,3.23,0,0,0,.63-2.23v-1a3.23,3.23,0,0,1-.63,2.23,2.12,2.12,0,0,1-1.64.67" transform="translate(-717.89 -504.78)" style="fill:#332e09;opacity:0.203766331076622;isolation:isolate"/><path id="a75ef765-da7e-4fc5-ab65-0fa3859bb0ed" data-name="Stroke-7" d="M765.11,506.89h7.13" transform="translate(-717.89 -504.78)" style="fill:none;stroke:#fff;stroke-linecap:round;stroke-linejoin:round;stroke-dasharray:1,2,6,2,3"/></g></g></g><g id="cd4bfcea-83e8-4fb8-8723-8c3b17326a78" data-name="Page-1"><g id="54d762aa-ccfe-48bb-8534-79ada96772ee" data-name="letter-P"><g id="5285eb33-5188-436d-bf9d-f560d9a775b2" data-name="Page-1"><path id="cb229c82-d10e-45a9-ade3-af6b3c69b4d4" data-name="Fill-1" d="M797.73,510.22H794v8.41h3.76a11.24,11.24,0,0,0,3.3-.41,3.84,3.84,0,0,0,2-1.35,4,4,0,0,0,.69-2.46,4.17,4.17,0,0,0-1.07-3q-1.2-1.22-4.94-1.22m1.35,12.62H794v7.79a3.64,3.64,0,0,1-.79,2.53,2.78,2.78,0,0,1-4,0,3.63,3.63,0,0,1-.77-2.51V509.45a3.47,3.47,0,0,1,.84-2.63,3.84,3.84,0,0,1,2.69-.79h7.15a18.78,18.78,0,0,1,4.88.49,7.27,7.27,0,0,1,2.92,1.56,7,7,0,0,1,1.87,2.67,9.38,9.38,0,0,1,.64,3.55,7.84,7.84,0,0,1-2.59,6.38q-2.59,2.17-7.72,2.17" transform="translate(-717.89 -504.78)" style="fill:#2fbbf4"/><path id="f761273e-70b7-4a7d-a566-ec00459e727f" data-name="Stroke-3" d="M797.73,510.22H794v8.41h3.76a11.24,11.24,0,0,0,3.3-.41,3.84,3.84,0,0,0,2-1.35,4,4,0,0,0,.69-2.46,4.17,4.17,0,0,0-1.07-3q-1.2-1.22-4.94-1.22Zm1.35,12.62H794v7.79a3.64,3.64,0,0,1-.79,2.53,2.78,2.78,0,0,1-4,0,3.63,3.63,0,0,1-.77-2.51V509.45a3.47,3.47,0,0,1,.84-2.63,3.84,3.84,0,0,1,2.69-.79h7.15a18.78,18.78,0,0,1,4.88.49,7.27,7.27,0,0,1,2.92,1.56,7,7,0,0,1,1.87,2.67,9.38,9.38,0,0,1,.64,3.55,7.84,7.84,0,0,1-2.59,6.38q-2.59,2.17-7.72,2.17Z" transform="translate(-717.89 -504.78)" style="fill:none;stroke:#092933;stroke-linejoin:round"/><path id="aaf9cf2d-cc7f-4b4b-890a-4ddad1af1e76" data-name="Fill-5" d="M791.2,532.53a2.1,2.1,0,0,1-1.66-.69,3.17,3.17,0,0,1-.64-2.17v1a3.17,3.17,0,0,0,.64,2.17,2.28,2.28,0,0,0,3.28,0,3.19,3.19,0,0,0,.66-2.2v-1a3.19,3.19,0,0,1-.66,2.2,2.08,2.08,0,0,1-1.62.7m17.68-18.72a7.09,7.09,0,0,1-2.39,5.47c-1.63,1.36-4.12,2.05-7.4,2.05h-5.61v1h5.61c3.28,0,5.77-.69,7.4-2.05s2.41-3.32,2.41-6c0-.16,0-.32,0-.48" transform="translate(-717.89 -504.78)" style="fill:#332e09;opacity:0.203766331076622;isolation:isolate"/><path id="de819a4e-c8c3-482a-a9c1-52fe935d4308" data-name="Stroke-7" d="M794.41,507.68h6.77" transform="translate(-717.89 -504.78)" style="fill:none;stroke:#fff;stroke-linecap:round;stroke-linejoin:round;stroke-dasharray:1,2,6,2,3"/></g></g></g></svg>